<svg xmlns="http://www.w3.org/2000/svg" width="19.92" height="24.538" viewBox="0 0 19.92 24.538">
  <path id="Icon_corebrands-apple" data-name="Icon corebrands-apple" d="M8.308,24.067A5.407,5.407,0,0,1,7.038,22.89,15.294,15.294,0,0,1,5.948,21.4a14.469,14.469,0,0,1-1.82-3.717,13.94,13.94,0,0,1-.759-4.439A8.25,8.25,0,0,1,4.4,9.065,5.886,5.886,0,0,1,6.539,6.838a5.71,5.71,0,0,1,2.9-.858,4.939,4.939,0,0,1,1.157.152c.3.084.655.215,1.094.379.559.215.866.347.97.379a2.458,2.458,0,0,0,.819.172,2.529,2.529,0,0,0,.658-.132c.148-.052.427-.144.826-.315.4-.144.707-.267.954-.359a8.98,8.98,0,0,1,1.074-.267,5.107,5.107,0,0,1,1.173-.048,6.946,6.946,0,0,1,1.984.427,5.35,5.35,0,0,1,2.511,2,4.864,4.864,0,0,0-.743.563,6.248,6.248,0,0,0-1.258,1.537A5.231,5.231,0,0,0,20,13.045a5.306,5.306,0,0,0,.858,2.922,5.492,5.492,0,0,0,1.569,1.569,4.2,4.2,0,0,0,.858.463c-.123.383-.255.754-.411,1.122A14.7,14.7,0,0,1,21.6,21.484c-.443.643-.79,1.122-1.054,1.441a5.659,5.659,0,0,1-1.206,1.117,2.693,2.693,0,0,1-1.485.447,3.368,3.368,0,0,1-1.058-.128c-.3-.1-.587-.208-.875-.331A7,7,0,0,0,15,23.683a4.8,4.8,0,0,0-2.375,0,7.579,7.579,0,0,0-.93.331c-.427.179-.71.3-.875.351a4.535,4.535,0,0,1-1.01.176,2.792,2.792,0,0,1-1.517-.459ZM15.313,5.2a3.82,3.82,0,0,1-2.016.447,4.1,4.1,0,0,1,.275-2.084,5.568,5.568,0,0,1,1.022-1.717A5.439,5.439,0,0,1,16.259.561,4.693,4.693,0,0,1,18.191,0a4.681,4.681,0,0,1-.255,2.115,6.117,6.117,0,0,1-1.022,1.8A5.235,5.235,0,0,1,15.293,5.2Z" transform="translate(-3.369 0.001)" fill="#fff"/>
</svg>
