<svg xmlns="http://www.w3.org/2000/svg" width="30.124" height="30" viewBox="0 0 30.124 30">
  <path id="Icon_material-round-travel-explore" data-name="Icon material-round-travel-explore" d="M28.95,25.35a6.649,6.649,0,0,0,.765-5.475,6.83,6.83,0,0,0-5.76-4.83A6.747,6.747,0,0,0,16.53,22.47a6.871,6.871,0,0,0,4.83,5.76,6.639,6.639,0,0,0,5.475-.765l3.75,3.75a1.485,1.485,0,1,0,2.1-2.1Zm-5.7.15A3.75,3.75,0,1,1,27,21.75,3.714,3.714,0,0,1,23.25,25.5ZM18,30v3A15,15,0,1,1,32.7,15H29.6a12,12,0,0,0-7.1-8.115V7.5a3.009,3.009,0,0,1-3,3h-3v3A1.5,1.5,0,0,1,15,15H12v3h3v4.5H13.5L6.315,15.315A12.177,12.177,0,0,0,6,18,12.016,12.016,0,0,0,18,30Z" transform="translate(-3 -3)" fill="#d6d6d6"/>
</svg>
