<svg xmlns="http://www.w3.org/2000/svg" width="28.749" height="25.177" viewBox="0 0 28.749 25.177">
  <path id="Icon_fa-solid-map-location-dot" data-name="Icon fa-solid-map-location-dot" d="M20.364,5.989c0,2.725-3.648,7.581-5.251,9.583a.939.939,0,0,1-1.477,0c-1.6-2-5.251-6.858-5.251-9.583a5.989,5.989,0,1,1,11.979,0Zm.4,4.013c.175-.344.334-.689.479-1.028.025-.06.05-.125.075-.185l5.79-2.316a1.2,1.2,0,0,1,1.642,1.113V21.1A1.2,1.2,0,0,1,28,22.215l-7.232,2.89ZM6.868,6.9a9.474,9.474,0,0,0,.639,2.071c.145.339.3.684.479,1.028V22.55L1.642,25.09A1.2,1.2,0,0,1,0,23.977V10.461A1.2,1.2,0,0,1,.754,9.348L6.873,6.9Zm9.493,9.668c.694-.868,1.782-2.281,2.805-3.843V25.17L9.583,22.43v-9.7c1.023,1.562,2.111,2.975,2.805,3.843a2.538,2.538,0,0,0,3.973,0ZM14.374,7.586a2,2,0,1,0-2-2A2,2,0,0,0,14.374,7.586Z" fill="#0368ff"/>
</svg>
