<svg xmlns="http://www.w3.org/2000/svg" xmlns:xlink="http://www.w3.org/1999/xlink" width="20.24" height="20.24" viewBox="0 0 20.24 20.24">
  <defs>
    <clipPath id="clip-path">
      <rect id="Rectangle_754" data-name="Rectangle 754" width="20.24" height="20.24" transform="translate(0 0)" fill="none"/>
    </clipPath>
  </defs>
  <g id="Group_1401" data-name="Group 1401" transform="translate(0 0)">
    <g id="Group_1400" data-name="Group 1400" transform="translate(0 0)" clip-path="url(#clip-path)">
      <path id="Path_2247" data-name="Path 2247" d="M19.168,10.12c1.033-.888,1.144-1.62,1.041-2.093s-.49-1.066-1.736-1.436c.609-1.157.449-1.848.187-2.233s-.838-.785-2.127-.651c.135-1.288-.268-1.867-.651-2.127s-1.076-.421-2.233.187C13.279.522,12.675.132,12.213.031s-1.2.007-2.093,1.041C9.231.039,8.5-.072,8.026.031S6.961.522,6.591,1.767c-1.156-.609-1.848-.448-2.233-.188s-.786.839-.652,2.127c-1.289-.136-1.867.268-2.127.651s-.422,1.076.187,2.233C.521,6.961.131,7.565.031,8.027s.008,1.2,1.041,2.093C.038,11.009-.073,11.741.031,12.214s.491,1.066,1.736,1.435c-.609,1.157-.449,1.848-.187,2.233s.84.786,2.127.651c-.135,1.288.268,1.867.652,2.127s1.077.421,2.233-.188c.369,1.246.973,1.636,1.435,1.736s1.2-.007,2.093-1.041a2.475,2.475,0,0,0,1.806,1.071,1.365,1.365,0,0,0,.288-.031c.462-.1,1.066-.491,1.435-1.736,1.157.609,1.848.448,2.233.188s.786-.839.651-2.127c1.289.135,1.867-.268,2.127-.651s.422-1.076-.187-2.233c1.246-.369,1.635-.973,1.736-1.435s-.008-1.2-1.041-2.093" transform="translate(0 0)" fill="#fd9b01"/>
      <path id="Path_2248" data-name="Path 2248" d="M27.7,23.434l-1.285-1.285-4.293,4.293-2.015-2.015-1.285,1.286,3.3,3.3,1.285-1.285Z" transform="translate(-13.037 -15.34)" fill="#fff"/>
    </g>
  </g>
</svg>
