<svg xmlns="http://www.w3.org/2000/svg" xmlns:xlink="http://www.w3.org/1999/xlink" width="20.24" height="20.24" viewBox="0 0 20.24 20.24">
  <defs>
    <clipPath id="clip-path">
      <rect id="Rectangle_756" data-name="Rectangle 756" width="20.24" height="20.24" fill="none"/>
    </clipPath>
  </defs>
  <g id="Group_1403" data-name="Group 1403" transform="translate(0 0)">
    <g id="Group_1402" data-name="Group 1402" transform="translate(0 0)" clip-path="url(#clip-path)">
      <path id="Path_2249" data-name="Path 2249" d="M19.168,10.12c1.033-.888,1.144-1.62,1.041-2.093s-.49-1.066-1.736-1.436c.609-1.157.449-1.848.187-2.233s-.838-.785-2.127-.651c.135-1.288-.268-1.867-.651-2.127s-1.076-.421-2.233.187C13.279.522,12.675.132,12.213.031s-1.2.007-2.093,1.041C9.231.039,8.5-.072,8.026.031S6.961.522,6.591,1.767c-1.156-.609-1.848-.448-2.233-.188s-.786.839-.652,2.127c-1.289-.136-1.867.268-2.127.651s-.422,1.076.187,2.233C.521,6.961.131,7.565.031,8.027s.008,1.2,1.041,2.093C.038,11.009-.073,11.741.031,12.214s.491,1.066,1.736,1.435c-.609,1.157-.449,1.848-.187,2.233s.84.786,2.127.651c-.135,1.288.268,1.867.652,2.127s1.077.421,2.233-.188c.369,1.246.973,1.636,1.435,1.736s1.2-.007,2.093-1.041a2.475,2.475,0,0,0,1.806,1.071,1.365,1.365,0,0,0,.288-.031c.462-.1,1.066-.491,1.435-1.736,1.157.609,1.848.448,2.233.188s.786-.839.651-2.127c1.289.135,1.867-.268,2.127-.651s.422-1.076-.187-2.233c1.246-.369,1.635-.973,1.736-1.435s-.008-1.2-1.041-2.093" transform="translate(0 0)" fill="#ff5800"/>
      <rect id="Rectangle_755" data-name="Rectangle 755" width="2.58" height="4.214" rx="0.839" transform="translate(6.409 8.843)" fill="#fff"/>
      <path id="Path_2250" data-name="Path 2250" d="M34.951,24.166h-.007a.535.535,0,0,1-.2.981l-.013.016a.53.53,0,0,1,.075.272.54.54,0,0,1-.543.538H31.178a.931.931,0,0,1-.547-.219V22.782a2.214,2.214,0,0,0,.778-.637c.523-.8.728-1.072,1.419-2.064.179-.257.184-.809.387-.86a.453.453,0,0,1,.108-.014c.229,0,.343.226.322.7a5.456,5.456,0,0,1-.387,1.5c-.093.229-.206.484-.129.6a.311.311,0,0,0,.213.129h1.512a.516.516,0,0,1,.247.967.537.537,0,0,1-.15,1.054" transform="translate(-21.215 -13.302)" fill="#fff" fill-rule="evenodd"/>
    </g>
  </g>
</svg>
