<svg xmlns="http://www.w3.org/2000/svg" width="24.25" height="26.25" viewBox="0 0 24.25 26.25">
  <g id="Icon_ion-share-social-outline" data-name="Icon ion-share-social-outline" transform="translate(-4.5 -3.375)">
    <path id="Path_1995" data-name="Path 1995" d="M11.625,17.625a3,3,0,1,1-3-3A3,3,0,0,1,11.625,17.625Z" transform="translate(0 -1.125)" fill="none" stroke="#000" stroke-linecap="round" stroke-linejoin="round" stroke-width="2.25"/>
    <path id="Path_1996" data-name="Path 1996" d="M29.625,7.5a3,3,0,1,1-3-3A3,3,0,0,1,29.625,7.5Z" transform="translate(-2)" fill="none" stroke="#000" stroke-linecap="round" stroke-linejoin="round" stroke-width="2.25"/>
    <path id="Path_1997" data-name="Path 1997" d="M29.625,27.75a3,3,0,1,1-3-3,3,3,0,0,1,3,3Z" transform="translate(-2 -2.25)" fill="none" stroke="#000" stroke-linecap="round" stroke-linejoin="round" stroke-width="2.25"/>
    <path id="Path_1998" data-name="Path 1998" d="M11.941,18.529l10.771,6.059m0-15.059L11.941,15.588" transform="translate(-0.702 -0.559)" fill="none" stroke="#000" stroke-linecap="round" stroke-linejoin="round" stroke-width="2.25"/>
  </g>
</svg>
