<svg xmlns="http://www.w3.org/2000/svg" width="56.082" height="10.203" viewBox="0 0 56.082 10.203">
  <g id="Group_1248" data-name="Group 1248" transform="translate(-94.805 -341)">
    <path id="Icon_fa-solid-star" data-name="Icon fa-solid-star" d="M7.531.359a.638.638,0,0,0-1.148,0L5.1,2.995l-2.861.422A.638.638,0,0,0,1.886,4.5L3.962,6.555l-.49,2.9a.639.639,0,0,0,.931.669L6.959,8.763l2.556,1.365a.639.639,0,0,0,.931-.669l-.492-2.9L12.03,4.5a.638.638,0,0,0-.355-1.084L8.812,2.995Z" transform="translate(93.107 341)" fill="#ffce00"/>
    <path id="Icon_fa-solid-star-2" data-name="Icon fa-solid-star" d="M7.531.359a.638.638,0,0,0-1.148,0L5.1,2.995l-2.861.422A.638.638,0,0,0,1.886,4.5L3.962,6.555l-.49,2.9a.639.639,0,0,0,.931.669L6.959,8.763l2.556,1.365a.639.639,0,0,0,.931-.669l-.492-2.9L12.03,4.5a.638.638,0,0,0-.355-1.084L8.812,2.995Z" transform="translate(115.887 341)" fill="#ffce00"/>
    <path id="Icon_fa-solid-star-3" data-name="Icon fa-solid-star" d="M7.531.359a.638.638,0,0,0-1.148,0L5.1,2.995l-2.861.422A.638.638,0,0,0,1.886,4.5L3.962,6.555l-.49,2.9a.639.639,0,0,0,.931.669L6.959,8.763l2.556,1.365a.639.639,0,0,0,.931-.669l-.492-2.9L12.03,4.5a.638.638,0,0,0-.355-1.084L8.812,2.995Z" transform="translate(104.497 341)" fill="#ffce00"/>
    <path id="Icon_fa-solid-star-4" data-name="Icon fa-solid-star" d="M7.531.359a.638.638,0,0,0-1.148,0L5.1,2.995l-2.861.422A.638.638,0,0,0,1.886,4.5L3.962,6.555l-.49,2.9a.639.639,0,0,0,.931.669L6.959,8.763l2.556,1.365a.639.639,0,0,0,.931-.669l-.492-2.9L12.03,4.5a.638.638,0,0,0-.355-1.084L8.812,2.995Z" transform="translate(127.277 341)" fill="#ffce00"/>
    <path id="Icon_fa-solid-star-5" data-name="Icon fa-solid-star" d="M7.531.359a.638.638,0,0,0-1.148,0L5.1,2.995l-2.861.422A.638.638,0,0,0,1.886,4.5L3.962,6.555l-.49,2.9a.639.639,0,0,0,.931.669L6.959,8.763l2.556,1.365a.639.639,0,0,0,.931-.669l-.492-2.9L12.03,4.5a.638.638,0,0,0-.355-1.084L8.812,2.995Z" transform="translate(138.667 341)" fill="#ffce00"/>
  </g>
</svg>
