<svg id="Group_1417" data-name="Group 1417" xmlns="http://www.w3.org/2000/svg" xmlns:xlink="http://www.w3.org/1999/xlink" width="430" height="932" viewBox="0 0 430 932">
  <defs>
    <clipPath id="clip-path">
      <rect id="Rectangle_18" data-name="Rectangle 18" width="430" height="932" fill="#0368ff"/>
    </clipPath>
    <clipPath id="clip-path-2">
      <rect id="Rectangle_17" data-name="Rectangle 17" width="1342.331" height="1836.229" fill="none"/>
    </clipPath>
    <clipPath id="clip-path-3">
      <rect id="Rectangle_2" data-name="Rectangle 2" width="1342.331" height="1836.234" fill="none"/>
    </clipPath>
    <clipPath id="clip-path-6">
      <rect id="Rectangle_4" data-name="Rectangle 4" width="43.992" height="43.986" fill="none"/>
    </clipPath>
    <clipPath id="clip-path-7">
      <rect id="Rectangle_5" data-name="Rectangle 5" width="39.204" height="40.767" fill="none"/>
    </clipPath>
    <clipPath id="clip-path-8">
      <rect id="Rectangle_6" data-name="Rectangle 6" width="33.118" height="34.359" fill="none"/>
    </clipPath>
    <clipPath id="clip-path-9">
      <rect id="Rectangle_7" data-name="Rectangle 7" width="30.209" height="29.628" fill="none"/>
    </clipPath>
    <clipPath id="clip-path-10">
      <rect id="Rectangle_8" data-name="Rectangle 8" width="39.461" height="37.885" fill="none"/>
    </clipPath>
    <clipPath id="clip-path-11">
      <rect id="Rectangle_9" data-name="Rectangle 9" width="38.699" height="38.326" fill="none"/>
    </clipPath>
    <clipPath id="clip-path-12">
      <rect id="Rectangle_10" data-name="Rectangle 10" width="29.513" height="29.56" fill="none"/>
    </clipPath>
    <clipPath id="clip-path-13">
      <rect id="Rectangle_11" data-name="Rectangle 11" width="28.594" height="28.982" fill="none"/>
    </clipPath>
    <clipPath id="clip-path-14">
      <rect id="Rectangle_12" data-name="Rectangle 12" width="26.64" height="25.406" fill="none"/>
    </clipPath>
    <clipPath id="clip-path-15">
      <rect id="Rectangle_13" data-name="Rectangle 13" width="38.655" height="37.64" fill="none"/>
    </clipPath>
    <clipPath id="clip-path-16">
      <rect id="Rectangle_14" data-name="Rectangle 14" width="28.605" height="28.025" fill="none"/>
    </clipPath>
    <clipPath id="clip-path-17">
      <rect id="Rectangle_15" data-name="Rectangle 15" width="30.986" height="31.052" fill="none"/>
    </clipPath>
    <linearGradient id="linear-gradient" x1="0.5" y1="-0.21" x2="0.5" y2="1" gradientUnits="objectBoundingBox">
      <stop offset="0" stop-color="#0368ff" stop-opacity="0"/>
      <stop offset="1" stop-color="#0368ff"/>
    </linearGradient>
  </defs>
  <rect id="Rectangle_1" data-name="Rectangle 1" width="430" height="932" fill="#0368ff"/>
  <g id="Mask_Group_1" data-name="Mask Group 1" opacity="0.247" clip-path="url(#clip-path)">
    <g id="Group_44" data-name="Group 44" transform="translate(-491.165 -563.849)">
      <g id="Group_43" data-name="Group 43" clip-path="url(#clip-path-2)">
        <g id="Group_2" data-name="Group 2" transform="translate(0 -0.005)">
          <g id="Group_1" data-name="Group 1" clip-path="url(#clip-path-3)">
            <path id="Path_1" data-name="Path 1" d="M823.277,587.607c8.957-21.363,18.587-43.347,35.738-58.919s44-22.937,63.9-11.074c18.8,11.21,25.383,34.628,33.019,55.145,11.828,31.784,33.818,64.179,67.212,70.092,21.461,3.8,43.274-4.293,62.4-14.738s37.046-23.446,57.556-30.82,45.07-8.193,62.563,4.807c17.974,13.358,24.086,38.783,18.827,60.551s-20.088,40.133-37.18,54.6c-27.495,23.274-61.021,37.973-92.059,56.257s-61.155,42.011-74.608,75.428c-15.368,38.176-4.42,85.416,26.175,112.941" transform="translate(114.879 71.413)" fill="none" stroke="#fff" stroke-width="2" stroke-dasharray="3 3"/>
            <path id="Path_2" data-name="Path 2" d="M223.277,587.607c8.957-21.363,18.587-43.347,35.737-58.919s44-22.937,63.9-11.074c18.8,11.21,25.383,34.628,33.019,55.145,11.828,31.784,33.818,64.179,67.212,70.092,21.461,3.8,43.274-4.293,62.4-14.738s37.046-23.446,57.556-30.82,45.07-8.193,62.563,4.807c17.974,13.358,24.086,38.783,18.826,60.551s-20.087,40.133-37.179,54.6c-27.495,23.274-61.021,37.973-92.059,56.257S434.1,815.52,420.649,848.937c-15.368,38.176-4.42,85.416,26.175,112.941" transform="translate(31.156 71.413)" fill="none" stroke="#fff" stroke-width="2" stroke-dasharray="3 3"/>
            <path id="Path_3" data-name="Path 3" d="M495.136,1294.317a372.223,372.223,0,0,1-136.356,79.612c-19.426,6.306-39.773,11.039-60.135,9.431s-40.884-10.289-53.152-26.617c-20.1-26.761-12.208-67.117,9.979-92.176s55.047-37.757,87.364-46.47,65.845-14.5,95.736-29.558c15.616-7.869,30.254-18.448,40.253-32.792s14.913-32.816,10.521-49.742c-4-15.426-29.732-36.381-66.04-23.846" transform="translate(32.642 150.473)" fill="none" stroke="#fff" stroke-width="2" stroke-dasharray="3 3"/>
            <path id="Path_4" data-name="Path 4" d="M1095.136,694.317a372.218,372.218,0,0,1-136.356,79.61c-19.426,6.307-39.773,11.04-60.135,9.432s-40.884-10.289-53.152-26.617c-20.1-26.761-12.208-67.117,9.979-92.176s55.048-37.757,87.364-46.47,65.845-14.5,95.736-29.558c15.616-7.869,30.254-18.448,40.253-32.792s14.914-32.816,10.521-49.742c-4-15.426-29.732-36.381-66.04-23.846" transform="translate(116.366 66.75)" fill="none" stroke="#fff" stroke-width="2" stroke-dasharray="3 3"/>
            <path id="Path_5" data-name="Path 5" d="M495.136,694.317a372.218,372.218,0,0,1-136.356,79.61c-19.426,6.307-39.773,11.04-60.135,9.432s-40.884-10.289-53.152-26.617c-20.1-26.761-12.208-67.117,9.979-92.176s55.047-37.757,87.364-46.47,65.845-14.5,95.736-29.558c15.616-7.869,30.254-18.448,40.253-32.792S493.739,522.928,489.347,506c-4-15.426-29.732-36.381-66.04-23.846" transform="translate(32.642 66.75)" fill="none" stroke="#fff" stroke-width="2" stroke-dasharray="3 3"/>
            <path id="Path_6" data-name="Path 6" d="M797.153,765.266A115.517,115.517,0,0,0,945.3,802.757c18.022-9.266,33.738-23.318,53.128-29.208,22.379-6.8,47.352-1.518,67.16,10.921s34.837,31.433,45.833,52.077c24.522,46.036,29.155,104.944,2.141,149.563-17.779,29.368-50.9,51.2-85.077,47.95-43.593-4.152-78.214-46.039-121.988-44.831-36.415,1.005-66.259,34.029-73.158,69.8" transform="translate(111.233 106.789)" fill="none" stroke="#fff" stroke-width="2" stroke-dasharray="3 3"/>
            <path id="Path_7" data-name="Path 7" d="M197.153,765.266A115.518,115.518,0,0,0,345.3,802.757c18.021-9.266,33.736-23.318,53.126-29.208,22.379-6.8,47.352-1.518,67.16,10.921s34.837,31.433,45.833,52.077c24.522,46.036,29.155,104.944,2.142,149.563-17.78,29.368-50.9,51.2-85.078,47.95-43.593-4.152-78.215-46.039-121.988-44.831-36.415,1.005-66.258,34.029-73.158,69.8" transform="translate(27.51 106.789)" fill="none" stroke="#fff" stroke-width="2" stroke-dasharray="3 3"/>
            <path id="Path_8" data-name="Path 8" d="M934.23,883.016c-58.045-12.255-107.425,30.9-110.953,68.942-2.417,26.052,4.153,52.823,20.873,72.948s39.992,33.87,64.252,43.668c41.741,16.858,88.927,22.908,132.148,10.318A162.259,162.259,0,0,0,1157.426,921.6c-.392-42.205-17.027-85.6-3.373-125.535a88.22,88.22,0,0,1,53.382-53.841" transform="translate(114.811 103.574)" fill="none" stroke="#fff" stroke-width="2" stroke-dasharray="3 3"/>
            <path id="Path_9" data-name="Path 9" d="M334.23,883.016c-58.045-12.255-107.425,30.9-110.953,68.942-2.417,26.052,4.152,52.823,20.873,72.948s39.992,33.87,64.252,43.668c41.741,16.858,88.927,22.908,132.149,10.318A162.26,162.26,0,0,0,557.425,921.6c-.392-42.205-17.027-85.6-3.372-125.535a88.215,88.215,0,0,1,53.381-53.841" transform="translate(31.088 103.574)" fill="none" stroke="#fff" stroke-width="2" stroke-dasharray="3 3"/>
            <path id="Path_10" data-name="Path 10" d="M573.26,1567.424c-.76-64.574,10.233-91.923,25.285-116.918,11.337-18.826,27.429-34.173,42.761-49.917,31.626-32.474,60.022-71.05,66.851-115.862s-13.9-96.266-56.223-112.5c-19.839-7.609-41.733-6.915-62.779-9.836s-43.51-11.1-53.74-29.721c-10.046-18.286-4.876-42.2,8.273-58.4s32.815-25.793,52.735-32c33.257-10.356,69.58-12.473,102.933-2.43s63.359,32.916,78.773,64.153c19.348,39.213,14.139,86.39-.035,127.755s-36.6,79.461-51.751,120.478-22.619,87.51-6.111,128,63.194,70.631,104.673,56.792" transform="translate(73.975 144.191)" fill="none" stroke="#fff" stroke-width="2" stroke-dasharray="3 3"/>
            <path id="Path_11" data-name="Path 11" d="M573.26,967.424c-.76-64.574,10.233-91.923,25.285-116.918,11.337-18.826,27.429-34.172,42.761-49.916,31.626-32.475,60.022-71.05,66.851-115.863s-13.9-96.265-56.223-112.5c-19.839-7.609-41.733-6.915-62.779-9.836s-43.51-11.1-53.74-29.721c-10.046-18.286-4.876-42.2,8.273-58.4s32.815-25.793,52.735-32c33.257-10.355,69.58-12.472,102.933-2.43s63.359,32.916,78.773,64.153c19.348,39.213,14.139,86.391-.035,127.755s-36.6,79.462-51.751,120.478-22.619,87.51-6.111,128,63.194,70.63,104.673,56.791" transform="translate(73.975 60.468)" fill="none" stroke="#fff" stroke-width="2" stroke-dasharray="3 3"/>
            <path id="Path_12" data-name="Path 12" d="M495.226,1148.528c-9.219-53.516,9.4-111.061,48.23-149.028s96.771-55.3,150.067-44.889,100.459,48.278,122.141,98.066c14.085,32.342,17.674,68.319,17.413,103.594-.912,123.673-48.783,246.433-131.834,338.075-13.831,15.261-28.679,29.8-39.928,47.048s-27.4,38.186-28.16,76.93c-.865,44.08,30.477,72.9,56.977,81.287s83.566-3.038,102.558-31.907" transform="translate(68.779 132.794)" fill="none" stroke="#fff" stroke-width="2" stroke-dasharray="3 3"/>
            <path id="Path_13" data-name="Path 13" d="M495.226,548.528c-9.219-53.516,9.4-111.061,48.23-149.028s96.771-55.3,150.067-44.889,100.459,48.278,122.141,98.066c14.085,32.342,17.674,68.319,17.413,103.594-.912,123.673-48.783,246.433-131.834,338.075-13.831,15.261-28.679,29.8-39.928,47.048s-27.4,38.186-28.16,76.93c-.865,44.08,30.477,72.9,56.977,81.288s83.566-3.039,102.558-31.907" transform="translate(68.779 49.071)" fill="none" stroke="#fff" stroke-width="2" stroke-dasharray="3 3"/>
          </g>
        </g>
        <g id="Group_4" data-name="Group 4" transform="translate(0 -0.005)">
          <g id="Group_3" data-name="Group 3" clip-path="url(#clip-path-3)">
            <path id="Path_14" data-name="Path 14" d="M320.4,867.874c-1.151,1.792-4.743,6.212-4.876,6.476-.2.387.434.513,1.274.636s2.426-1.453,3.035-1.94,3.585-2.971,3.585-2.971,1.647.925,2.569,1.361,2.827,1.2,3.51,1.465c2.275.89,1.88.651,3.375,1.2,1.155.423,3.115,1.173,3.372,1.275,0,0-2.251,5.536-3.128,7.5s-5.365,8.965-5.836,9.781-.182.841.786,1c2.461.4,2.716.021,2.716.021l6.024-6.1,2,.6a1.488,1.488,0,0,0,.855-2.85l-.485-.145,1.493-1.512,2.361.708a1.487,1.487,0,0,0,.855-2.849l-.847-.253,2.97-3s1.978.648,4.576,1.284a28.929,28.929,0,0,0,7.1.761,2.01,2.01,0,0,0,1.736-.85l.064-.212a2.014,2.014,0,0,0-.982-1.663,28.841,28.841,0,0,0-6.346-3.275c-2.516-.9-4.526-1.445-4.526-1.445l-.825-4.142.843.254a1.488,1.488,0,0,0,.857-2.85l-2.357-.708-.417-2.083.482.145a1.487,1.487,0,1,0,.857-2.849l-2-.6-1.675-8.4s0-.464-2.279-1.479c-.893-.4-1.145-.537-1.2.4s-.163,9.253-.514,11.377-1.52,7.986-1.52,7.986c-.27-.057-2.319-.508-3.511-.791-1.552-.368-1.091-.351-3.482-.86-.713-.153-2.727-.563-3.733-.706s-2.9-.279-2.9-.279-1.116-3.712-1.356-4.451-.7-2.935-1.464-3.293-1.365-.6-1.415-.167c-.038.313.41,6.43.386,8.493" transform="translate(44.023 118.592)" fill="#fff"/>
            <path id="Path_15" data-name="Path 15" d="M799.472,767.388c2.031-.645,7.617-1.755,7.888-1.872.4-.174-.007-.674-.576-1.3s-2.8-.43-3.575-.443-4.655,0-4.655,0-.679-1.764-1.11-2.687-1.412-2.728-1.767-3.369c-1.183-2.137-1.032-1.7-1.835-3.075-.619-1.062-1.649-2.89-1.781-3.133,0,0,5.265-2.827,7.2-3.781s9.852-3.479,10.734-3.807.677-.531.032-1.272c-1.638-1.883-2.078-1.748-2.078-1.748l-8.526.848-1.156-1.736a1.487,1.487,0,0,0-2.476,1.649l.28.42-2.115.212-1.365-2.05a1.487,1.487,0,1,0-2.476,1.648l.49.734-4.2.418s-1.109-1.761-2.7-3.91a28.961,28.961,0,0,0-4.98-5.115,2.008,2.008,0,0,0-1.879-.454l-.185.123a2.009,2.009,0,0,0-.3,1.906,28.913,28.913,0,0,0,2.8,6.572c1.366,2.3,2.564,4,2.564,4L779.7,749.88l-.489-.735a1.488,1.488,0,0,0-2.477,1.648l1.363,2.049-1.008,1.87-.28-.419a1.487,1.487,0,1,0-2.476,1.647l1.156,1.737-4.074,7.537s-.3.357.811,2.595c.433.879.54,1.144,1.184.457s6.03-7.02,7.655-8.431,6.268-5.178,6.268-5.178c.171.215,1.462,1.871,2.2,2.85.959,1.273.617.966,2.132,2.883.452.574,1.74,2.174,2.424,2.927s2.053,2.065,2.053,2.065-1.51,3.569-1.8,4.292-1.336,2.7-.973,3.47.668,1.333.983,1.032c.228-.219,3.787-5.213,5.121-6.786" transform="translate(107.637 102.355)" fill="#fff"/>
            <path id="Path_16" data-name="Path 16" d="M758.018,982.143c1.176,1.341,3.9,5.254,4.084,5.423.267.247.513-.231.807-.879s-.609-2.289-.86-2.891-1.561-3.571-1.561-3.571,1.126-1.113,1.689-1.754,1.619-2,1.992-2.486c1.242-1.625.958-1.363,1.743-2.44.606-.831,1.664-2.235,1.805-2.417,0,0,3.935,3.09,5.315,4.252s5.976,6.392,6.524,6.958.634.342.986-.4c.895-1.888.644-2.182.644-2.182l-3.512-6.256.945-1.469a1.246,1.246,0,0,0-2.1-1.347l-.229.357-.872-1.551,1.116-1.736a1.246,1.246,0,1,0-2.1-1.347l-.4.622-1.731-3.085s.979-1.442,2.092-3.386a24.253,24.253,0,0,0,2.254-5.537,1.681,1.681,0,0,0-.283-1.593l-.156-.1a1.684,1.684,0,0,0-1.566.406,24.267,24.267,0,0,0-4.1,4.35c-1.3,1.819-2.211,3.309-2.211,3.309l-3.523-.293.4-.621a1.246,1.246,0,0,0-2.1-1.348l-1.115,1.733-1.773-.147.228-.355a1.245,1.245,0,1,0-2.094-1.347l-.945,1.469-7.149-.6s-.373-.107-1.718,1.493c-.529.627-.7.8.047,1.062s7.409,2.271,9.038,3.044,6.076,3.07,6.076,3.07c-.108.2-.946,1.75-1.449,2.644-.654,1.163-.534.8-1.5,2.6-.288.54-1.085,2.065-1.432,2.843s-.9,2.267-.9,2.267-3.244.04-3.895.062-2.524-.117-2.989.418-.8.959-.463,1.1c.244.1,5.271,1.156,6.925,1.652" transform="translate(104.388 133.023)" fill="#fff"/>
            <path id="Path_17" data-name="Path 17" d="M830.73,1023.713c-1.3-.594-4.568-2.559-4.756-2.623-.276-.092-.3.337-.3.906s1.193,1.472,1.574,1.829,2.309,2.1,2.309,2.1-.458,1.181-.66,1.832-.528,1.99-.64,2.467c-.375,1.593-.254,1.309-.474,2.352-.171.806-.483,2.177-.526,2.355,0,0-3.885-.969-5.273-1.365s-6.454-2.71-7.039-2.945-.575-.042-.589.615c-.035,1.672.244,1.8.244,1.8l4.612,3.419-.209,1.381a1,1,0,1,0,1.97.3l.05-.335,1.145.847-.246,1.632a1,1,0,1,0,1.97.3l.088-.584,2.272,1.684s-.243,1.373-.419,3.158a19.414,19.414,0,0,0,.166,4.779,1.345,1.345,0,0,0,.728,1.071l.146.022a1.348,1.348,0,0,0,1.011-.808,19.4,19.4,0,0,0,1.573-4.52c.356-1.754.53-3.138.53-3.138l2.669-.939-.089.585a1,1,0,0,0,1.971.3l.246-1.63,1.343-.473-.051.334a1,1,0,1,0,1.97.3l.209-1.381,5.415-1.9s.308-.045.766-1.652c.181-.631.248-.81-.381-.76s-6.152.766-7.6.735-5.44-.253-5.44-.253c.013-.185.117-1.587.193-2.4.1-1.064.13-.757.242-2.39.033-.489.115-1.863.115-2.545s-.089-1.949-.089-1.949,2.357-1.091,2.825-1.318,1.88-.741,2.045-1.283.269-.962-.023-.955c-.212.006-4.227.881-5.6,1.06" transform="translate(113.633 142.484)" fill="#fff"/>
            <path id="Path_18" data-name="Path 18" d="M570.272,904.357c-1.788-.463-6.4-2.222-6.653-2.26-.371-.056-.3.5-.178,1.222s1.854,1.6,2.419,1.971,3.416,2.147,3.416,2.147-.315,1.607-.424,2.483-.22,2.653-.255,3.286c-.115,2.114-.026,1.724-.069,3.1-.035,1.064-.121,2.881-.136,3.12,0,0-5.168-.352-7.024-.541s-8.835-1.986-9.634-2.151-.741.076-.61.917c.335,2.137.72,2.241.72,2.241l6.649,3.307.048,1.806a1.289,1.289,0,0,0,2.578-.07l-.013-.439,1.65.819.057,2.134a1.289,1.289,0,1,0,2.576-.068l-.021-.765,3.277,1.63s0,1.8.182,4.116a25.032,25.032,0,0,0,1.3,6.049c.44,1.086,1.17,1.2,1.17,1.2l.192-.006s.722-.153,1.1-1.259a25.013,25.013,0,0,0,.977-6.111c.056-2.314-.038-4.118-.038-4.118l3.185-1.8.021.765a1.289,1.289,0,0,0,2.578-.068l-.056-2.132,1.6-.907.011.436a1.289,1.289,0,1,0,2.577-.067l-.048-1.807,6.464-3.655s.382-.125.6-2.278c.088-.844.131-1.088-.657-.881s-7.661,2.373-9.5,2.661-6.985.913-6.985.913c-.026-.237-.211-2.048-.3-3.105-.117-1.377-.007-.994-.236-3.1-.068-.63-.276-2.4-.43-3.266s-.556-2.461-.556-2.461,2.753-1.924,3.3-2.321,2.227-1.37,2.314-2.1.123-1.285-.246-1.21c-.268.056-5.182,2.082-6.886,2.621" transform="translate(76.892 125.83)" fill="#fff"/>
            <path id="Path_19" data-name="Path 19" d="M497.06,526.687c-1.843-.116-6.7-.972-6.96-.962-.375.016-.205.546.057,1.234s2.123,1.224,2.749,1.479,3.759,1.461,3.759,1.461,0,1.638.055,2.518.285,2.647.37,3.276c.286,2.1.3,1.7.518,3.06.166,1.052.425,2.852.456,3.089,0,0-5.14.631-7,.8s-9.05-.28-9.865-.291-.713.215-.426,1.017c.733,2.034,1.132,2.064,1.132,2.064l7.154,1.99.389,1.765a1.289,1.289,0,0,0,2.518-.555l-.095-.429,1.774.492.459,2.085a1.289,1.289,0,1,0,2.517-.555l-.165-.746,3.527.98s.343,1.771.957,4.007a25.075,25.075,0,0,0,2.418,5.7,1.742,1.742,0,0,0,1.375.956l.187-.042a1.744,1.744,0,0,0,.846-1.445,25.075,25.075,0,0,0-.2-6.185c-.383-2.284-.816-4.036-.816-4.036l2.787-2.372.164.748a1.289,1.289,0,0,0,2.518-.555l-.458-2.082,1.4-1.194.095.426a1.289,1.289,0,1,0,2.517-.554l-.389-1.765,5.656-4.811s.351-.195.158-2.35c-.074-.846-.077-1.094-.812-.741s-7.075,3.779-8.83,4.41-6.687,2.218-6.687,2.218c-.072-.228-.595-1.971-.883-2.994-.375-1.329-.194-.973-.817-3-.186-.606-.724-2.3-1.04-3.126s-1.011-2.312-1.011-2.312,2.339-2.41,2.8-2.9,1.928-1.766,1.876-2.5-.122-1.285-.471-1.142c-.253.1-4.695,3.024-6.266,3.876" transform="translate(67.057 72.954)" fill="#fff"/>
            <path id="Path_20" data-name="Path 20" d="M561.952,744.2c0,1.427-.434,5.218-.414,5.415.03.289.431.133.949-.1s.844-1.7,1.012-2.191.95-2.971.95-2.971,1.264-.073,1.941-.16,2.028-.345,2.51-.441c1.6-.319,1.3-.311,2.336-.544.8-.179,2.181-.463,2.362-.5,0,0,.73,3.937.945,5.364s.211,7,.24,7.627.2.54.8.28c1.535-.662,1.54-.971,1.54-.971l1.2-5.613,1.343-.383a1,1,0,0,0-.547-1.917l-.326.092.3-1.392,1.587-.452a1,1,0,1,0-.547-1.917l-.568.163.589-2.767s1.35-.349,3.047-.928a19.414,19.414,0,0,0,4.28-2.134,1.346,1.346,0,0,0,.673-1.106l-.041-.142a1.349,1.349,0,0,0-1.155-.585,19.381,19.381,0,0,0-4.763.444c-1.745.4-3.077.819-3.077.819l-1.961-2.039.569-.162a1,1,0,0,0-.547-1.918l-1.585.452-.987-1.026.325-.092a1,1,0,1,0-.546-1.917l-1.345.383-3.978-4.136s-.168-.262-1.821-.011c-.65.1-.84.111-.533.661s3.249,5.281,3.819,6.606,2.026,5.055,2.026,5.055c-.172.066-1.493.552-2.268.823-1.007.352-.742.2-2.275.771-.458.172-1.742.667-2.362.95s-1.737.889-1.737.889-1.969-1.692-2.371-2.023-1.454-1.4-2.016-1.329-.987.154-.859.416c.092.19,2.555,3.48,3.285,4.653" transform="translate(77.952 101.396)" fill="#fff"/>
            <path id="Path_21" data-name="Path 21" d="M824.628,580.6c-1.113-.893-3.8-3.6-3.971-3.706-.245-.157-.373.254-.514.8s.8,1.72,1.079,2.159,1.726,2.6,1.726,2.6-.732,1.032-1.086,1.616-1,1.8-1.224,2.235c-.753,1.454-.566,1.208-1.035,2.165-.362.74-1,1.992-1.086,2.156,0,0-3.53-1.888-4.779-2.612s-5.6-4.2-6.107-4.575-.547-.181-.721.454c-.442,1.611-.2,1.808-.2,1.808l3.636,4.442-.539,1.288a1,1,0,0,0,1.838.77l.131-.313.9,1.1-.637,1.522a1,1,0,1,0,1.838.77l.228-.545,1.792,2.188s-.572,1.273-1.178,2.959a19.408,19.408,0,0,0-1.006,4.675,1.347,1.347,0,0,0,.444,1.217l.137.057a1.351,1.351,0,0,0,1.177-.538,19.373,19.373,0,0,0,2.628-4c.774-1.614,1.281-2.915,1.281-2.915l2.818-.259-.229.546a1,1,0,0,0,1.839.77l.637-1.52,1.416-.131-.13.311a1,1,0,1,0,1.838.77l.54-1.289,5.716-.523s.309.032,1.145-1.415c.33-.567.439-.726-.183-.831s-6.154-.759-7.544-1.142-5.215-1.575-5.215-1.575c.057-.176.5-1.51.775-2.284.354-1.009.31-.7.817-2.259.153-.466.567-1.778.734-2.439s.39-1.911.39-1.911,2.551-.483,3.061-.59,2-.258,2.3-.744.5-.867.212-.931c-.207-.047-4.314-.179-5.686-.34" transform="translate(112.558 80.499)" fill="#fff"/>
            <path id="Path_22" data-name="Path 22" d="M420.625,908.3c-1.137.861-4.417,2.812-4.562,2.948-.213.2.155.423.654.694s1.862-.354,2.357-.52,2.94-1.042,2.94-1.042.824.962,1.3,1.448,1.5,1.407,1.869,1.732c1.226,1.084,1.034.843,1.847,1.531.629.532,1.689,1.456,1.826,1.579,0,0-2.692,2.964-3.7,4s-5.444,4.4-5.927,4.807-.309.485.263.809c1.456.823,1.7.639,1.7.639l5.194-2.443,1.118.838a1,1,0,0,0,1.2-1.6l-.271-.2,1.288-.607,1.321.989a1,1,0,0,0,1.2-1.594l-.474-.354,2.561-1.2s1.094.865,2.582,1.864a19.348,19.348,0,0,0,4.289,2.116,1.344,1.344,0,0,0,1.288-.133l.089-.12a1.346,1.346,0,0,0-.234-1.272,19.384,19.384,0,0,0-3.236-3.525c-1.377-1.144-2.514-1.953-2.514-1.953l.436-2.8.473.354a1,1,0,0,0,1.2-1.6l-1.32-.988.219-1.406.271.2a1,1,0,0,0,1.2-1.594l-1.119-.838.887-5.672s.107-.292-1.093-1.456c-.469-.458-.6-.6-.85-.024s-2.238,5.782-2.948,7.038-2.8,4.672-2.8,4.672c-.157-.1-1.342-.855-2.027-1.308-.891-.589-.605-.473-1.991-1.344-.415-.261-1.586-.984-2.187-1.307s-1.757-.844-1.757-.844.154-2.591.174-3.112.238-2.007-.162-2.409-.72-.693-.851-.432c-.1.189-1.225,4.14-1.716,5.431" transform="translate(58.048 125.803)" fill="#fff"/>
            <path id="Path_23" data-name="Path 23" d="M466.99,669.474c1.035,1.96,3.2,7.474,3.37,7.729.251.376.687-.131,1.227-.828s-.074-2.941-.2-3.741-.856-4.766-.856-4.766,1.681-1.019,2.546-1.631,2.532-1.947,3.124-2.428c1.969-1.606,1.551-1.371,2.809-2.445.973-.828,2.655-2.22,2.878-2.4,0,0,3.863,4.869,5.2,6.671s5.374,9.444,5.873,10.287.668.6,1.307-.2c1.626-2.023,1.406-2.45,1.406-2.45l-2.437-8.572,1.565-1.5a1.547,1.547,0,0,0-2.143-2.231l-.38.365-.607-2.126,1.849-1.774a1.547,1.547,0,0,0-2.143-2.231l-.661.636-1.2-4.225s1.6-1.459,3.505-3.487a30.039,30.039,0,0,0,4.319-6.04,2.089,2.089,0,0,0,.12-2.007l-.16-.165a2.094,2.094,0,0,0-2.009.039,30.053,30.053,0,0,0-6.212,4.072c-2.1,1.821-3.625,3.36-3.625,3.36l-4.173-1.371.663-.636a1.548,1.548,0,0,0-2.145-2.232l-1.846,1.772-2.1-.688.378-.364a1.547,1.547,0,1,0-2.142-2.231l-1.565,1.5-8.466-2.783s-.42-.237-2.507,1.308c-.819.605-1.071.763-.25,1.3s8.3,4.881,10.04,6.283,6.454,5.462,6.454,5.462c-.189.215-1.647,1.841-2.513,2.776-1.127,1.217-.875.809-2.558,2.713-.5.569-1.906,2.181-2.551,3.021s-1.736,2.481-1.736,2.481-3.931-.888-4.723-1.049-3.015-.87-3.732-.358-1.241.929-.876,1.2c.267.193,6.035,2.916,7.89,3.993" transform="translate(64.045 89.266)" fill="#fff"/>
            <path id="Path_24" data-name="Path 24" d="M791.247,876.928c.244,1.406.473,5.216.526,5.406.08.28.447.056.917-.263s.539-1.818.619-2.333.424-3.091.424-3.091,1.232-.289,1.884-.492,1.94-.689,2.4-.867c1.526-.591,1.223-.531,2.208-.939.76-.315,2.067-.832,2.24-.9,0,0,1.4,3.753,1.856,5.121s1.414,6.854,1.552,7.47.291.5.841.138c1.4-.916,1.349-1.221,1.349-1.221l.212-5.736,1.257-.609a1,1,0,0,0-.869-1.794l-.305.148.051-1.423,1.485-.72a1,1,0,1,0-.868-1.792l-.531.258.1-2.827s1.269-.577,2.841-1.439a19.37,19.37,0,0,0,3.847-2.841,1.344,1.344,0,0,0,.472-1.206l-.064-.133a1.35,1.35,0,0,0-1.239-.376,19.424,19.424,0,0,0-4.616,1.259c-1.648.7-2.889,1.338-2.889,1.338l-2.284-1.669.532-.258a1,1,0,0,0-.869-1.795l-1.482.719-1.15-.84.3-.147a1,1,0,1,0-.869-1.794l-1.257.61-4.633-3.389s-.21-.229-1.795.3c-.623.206-.809.254-.411.744s4.111,4.64,4.9,5.847,2.868,4.63,2.868,4.63c-.158.095-1.375.8-2.092,1.2-.932.521-.7.321-2.107,1.152-.422.25-1.6.958-2.164,1.344s-1.557,1.175-1.557,1.175-2.231-1.325-2.685-1.583-1.674-1.132-2.215-.961-.946.323-.775.558c.125.171,3.118,2.987,4.04,4.016" transform="translate(109.84 119.792)" fill="#fff"/>
            <path id="Path_25" data-name="Path 25" d="M405.784,1082.562c.008-1.5.475-5.475.455-5.683-.031-.3-.451-.14-1,.1s-.892,1.778-1.07,2.3-1.008,3.114-1.008,3.114-1.326.072-2.037.161-2.131.354-2.636.453c-1.686.329-1.362.322-2.455.562-.844.185-2.29.477-2.482.514,0,0-.751-4.134-.972-5.634s-.195-7.344-.223-8.005-.209-.567-.843-.3c-1.614.688-1.619,1.013-1.619,1.013l-1.279,5.888-1.412.4a1.047,1.047,0,0,0,.567,2.015l.342-.1-.316,1.46-1.667.469a1.046,1.046,0,1,0,.566,2.014l.6-.169-.63,2.9s-1.418.361-3.2.963a20.267,20.267,0,0,0-4.5,2.224,1.415,1.415,0,0,0-.711,1.159l.043.149a1.411,1.411,0,0,0,1.209.616,20.314,20.314,0,0,0,5-.448c1.832-.417,3.233-.849,3.233-.849l2.051,2.148-.6.168a1.046,1.046,0,0,0,.566,2.015l1.665-.468,1.032,1.079-.341.1a1.046,1.046,0,1,0,.566,2.014l1.412-.4,4.16,4.356s.174.276,1.911.019c.681-.1.883-.114.563-.693s-3.391-5.555-3.985-6.948-2.108-5.314-2.108-5.314c.182-.067,1.569-.573,2.384-.854,1.06-.367.779-.2,2.39-.8.482-.179,1.832-.694,2.484-.988s1.826-.926,1.826-.926,2.061,1.782,2.482,2.131,1.52,1.479,2.112,1.4,1.036-.158.9-.434c-.1-.2-2.668-3.662-3.431-4.9" transform="translate(52.781 149.302)" fill="#fff"/>
          </g>
        </g>
        <g id="Group_42" data-name="Group 42" transform="translate(0 -0.005)">
          <g id="Group_41" data-name="Group 41" clip-path="url(#clip-path-3)">
            <path id="Path_26" data-name="Path 26" d="M404.035,1078.888c-8.957,21.363-18.587,43.347-35.737,58.919s-44,22.937-63.9,11.074c-18.8-11.21-25.383-34.628-33.019-55.145-11.828-31.784-33.818-64.179-67.212-70.092-21.461-3.8-43.273,4.293-62.4,14.738s-37.046,23.446-57.556,30.82-45.07,8.193-62.563-4.807c-17.974-13.358-24.086-38.783-18.826-60.551S22.905,963.712,40,949.243c27.495-23.274,61.021-37.973,92.059-56.257s61.154-42.011,74.608-75.428c15.368-38.176,4.42-85.416-26.175-112.941" transform="translate(0.14 98.326)" fill="none" stroke="#fff" stroke-width="2" stroke-dasharray="3 3"/>
            <path id="Path_27" data-name="Path 27" d="M1004.035,1078.888c-8.957,21.363-18.587,43.347-35.737,58.919s-44,22.937-63.9,11.074c-18.8-11.21-25.383-34.628-33.019-55.145-11.828-31.784-33.818-64.179-67.212-70.092-21.461-3.8-43.273,4.293-62.4,14.738s-37.046,23.446-57.556,30.82-45.07,8.193-62.563-4.807c-17.974-13.358-24.086-38.783-18.826-60.551s20.087-40.133,37.179-54.6c27.495-23.274,61.021-37.973,92.059-56.257s61.154-42.011,74.608-75.428c15.368-38.176,4.42-85.416-26.175-112.941" transform="translate(83.863 98.326)" fill="none" stroke="#fff" stroke-width="2" stroke-dasharray="3 3"/>
            <path id="Path_28" data-name="Path 28" d="M714.809,354.449a372.217,372.217,0,0,1,136.356-79.61c19.426-6.307,39.773-11.04,60.135-9.432s40.884,10.289,53.152,26.617c20.1,26.761,12.208,67.117-9.979,92.176s-55.048,37.757-87.364,46.47-65.845,14.5-95.736,29.559c-15.616,7.868-30.254,18.448-40.253,32.792S716.2,525.838,720.6,542.764c4,15.426,29.732,36.381,66.04,23.846" transform="translate(99.743 36.995)" fill="none" stroke="#fff" stroke-width="2" stroke-dasharray="3 3"/>
            <path id="Path_29" data-name="Path 29" d="M114.809,954.449a372.217,372.217,0,0,1,136.356-79.61c19.426-6.307,39.773-11.04,60.135-9.432s40.884,10.289,53.151,26.617c20.1,26.761,12.208,67.117-9.979,92.176s-55.048,37.757-87.364,46.47-65.845,14.5-95.736,29.558c-15.616,7.869-30.254,18.448-40.253,32.792s-14.914,32.817-10.521,49.742c4,15.426,29.732,36.381,66.04,23.846" transform="translate(16.02 120.718)" fill="none" stroke="#fff" stroke-width="2" stroke-dasharray="3 3"/>
            <path id="Path_30" data-name="Path 30" d="M714.809,954.449a372.217,372.217,0,0,1,136.356-79.61c19.426-6.307,39.773-11.04,60.135-9.432s40.884,10.289,53.152,26.617c20.1,26.761,12.208,67.117-9.979,92.176s-55.048,37.757-87.364,46.47-65.845,14.5-95.736,29.558c-15.616,7.869-30.254,18.448-40.253,32.792s-14.914,32.817-10.521,49.742c4,15.426,29.732,36.381,66.04,23.846" transform="translate(99.743 120.718)" fill="none" stroke="#fff" stroke-width="2" stroke-dasharray="3 3"/>
            <path id="Path_31" data-name="Path 31" d="M421.8,882.083A115.518,115.518,0,0,0,273.65,844.592c-18.021,9.266-33.737,23.318-53.126,29.208-22.381,6.8-47.352,1.518-67.16-10.921s-34.837-31.433-45.833-52.077c-24.522-46.036-29.155-104.943-2.142-149.563,17.78-29.369,50.9-51.2,85.078-47.949,43.593,4.152,78.215,46.038,121.988,44.831,36.415-1.005,66.258-34.029,73.158-69.8" transform="translate(12.147 82.098)" fill="none" stroke="#fff" stroke-width="2" stroke-dasharray="3 3"/>
            <path id="Path_32" data-name="Path 32" d="M1021.8,882.083a115.517,115.517,0,0,0-148.146-37.491c-18.022,9.266-33.738,23.318-53.128,29.208-22.379,6.8-47.352,1.518-67.16-10.921s-34.837-31.433-45.833-52.077c-24.522-46.036-29.155-104.943-2.142-149.563,17.78-29.369,50.9-51.2,85.078-47.949,43.593,4.152,78.214,46.038,121.988,44.831,36.415-1.005,66.258-34.029,73.158-69.8" transform="translate(95.87 82.098)" fill="none" stroke="#fff" stroke-width="2" stroke-dasharray="3 3"/>
            <path id="Path_33" data-name="Path 33" d="M290.83,770.409c58.045,12.255,107.425-30.9,110.953-68.942,2.417-26.052-4.152-52.823-20.873-72.948s-39.992-33.87-64.252-43.668c-41.741-16.858-88.927-22.908-132.148-10.319A162.259,162.259,0,0,0,67.635,731.824c.392,42.205,17.027,85.6,3.373,125.535A88.217,88.217,0,0,1,17.626,911.2" transform="translate(2.46 79.237)" fill="none" stroke="#fff" stroke-width="2" stroke-dasharray="3 3"/>
            <path id="Path_34" data-name="Path 34" d="M890.83,770.409c58.045,12.255,107.425-30.9,110.953-68.942,2.417-26.052-4.152-52.823-20.873-72.948s-39.992-33.87-64.252-43.668c-41.741-16.858-88.927-22.908-132.148-10.319A162.259,162.259,0,0,0,667.635,731.824c.392,42.205,17.027,85.6,3.373,125.535A88.219,88.219,0,0,1,617.626,911.2" transform="translate(86.183 79.237)" fill="none" stroke="#fff" stroke-width="2" stroke-dasharray="3 3"/>
            <path id="Path_35" data-name="Path 35" d="M640.795,109.355c.76,64.574-10.233,91.923-25.285,116.918-11.337,18.826-27.43,34.172-42.761,49.916-31.626,32.475-60.022,71.05-66.851,115.863s13.9,96.266,56.223,112.5c19.838,7.609,41.733,6.915,62.779,9.835s43.51,11.1,53.74,29.723c10.046,18.286,4.876,42.2-8.273,58.4s-32.815,25.793-52.736,32c-33.257,10.356-69.58,12.472-102.933,2.43s-63.359-32.916-78.773-64.153c-19.348-39.213-14.139-86.389.035-127.755s36.6-79.461,51.751-120.478,22.619-87.51,6.111-128-63.194-70.631-104.673-56.792" transform="translate(54.301 15.264)" fill="none" stroke="#fff" stroke-width="2" stroke-dasharray="3 3"/>
            <path id="Path_36" data-name="Path 36" d="M640.795,709.355c.76,64.574-10.233,91.923-25.285,116.918-11.337,18.826-27.43,34.172-42.761,49.916-31.626,32.475-60.022,71.05-66.851,115.863s13.9,96.266,56.223,112.5c19.838,7.609,41.733,6.915,62.779,9.837s43.51,11.1,53.74,29.721c10.046,18.286,4.876,42.2-8.273,58.4s-32.815,25.793-52.736,32c-33.257,10.356-69.58,12.473-102.933,2.43s-63.359-32.916-78.773-64.153c-19.348-39.213-14.139-86.39.035-127.755s36.6-79.461,51.751-120.478,22.619-87.51,6.111-128-63.194-70.631-104.673-56.792" transform="translate(54.301 98.987)" fill="none" stroke="#fff" stroke-width="2" stroke-dasharray="3 3"/>
            <path id="Path_37" data-name="Path 37" d="M724.39,554.768c9.219,53.516-9.4,111.059-48.23,149.028s-96.771,55.3-150.067,44.889-100.459-48.278-122.141-98.066c-14.085-32.342-17.673-68.319-17.413-103.594.912-123.673,48.783-246.433,131.834-338.075,13.831-15.261,28.679-29.8,39.928-47.048s27.4-38.186,28.161-76.93c.864-44.08-30.478-72.9-56.977-81.288S445.919,6.722,426.927,35.59" transform="translate(53.935 0.144)" fill="none" stroke="#fff" stroke-width="2" stroke-dasharray="3 3"/>
            <path id="Path_38" data-name="Path 38" d="M724.39,1154.768c9.219,53.516-9.4,111.059-48.23,149.028s-96.771,55.3-150.067,44.889-100.459-48.278-122.141-98.066c-14.085-32.343-17.673-68.319-17.413-103.594.912-123.673,48.783-246.433,131.834-338.075,13.831-15.261,28.679-29.8,39.928-47.048s27.4-38.186,28.161-76.93c.864-44.08-30.478-72.9-56.977-81.288s-83.567,3.039-102.559,31.907" transform="translate(53.935 83.867)" fill="none" stroke="#fff" stroke-width="2" stroke-dasharray="3 3"/>
            <g id="Group_7" data-name="Group 7" transform="translate(938.828 823.799)" opacity="0.3">
              <g id="Group_6" data-name="Group 6">
                <g id="Group_5" data-name="Group 5" clip-path="url(#clip-path-6)">
                  <path id="Path_39" data-name="Path 39" d="M862.945,748.888c1.151-1.792,4.744-6.212,4.878-6.476.195-.388-.435-.513-1.275-.636s-2.426,1.453-3.035,1.94-3.585,2.971-3.585,2.971-1.648-.925-2.568-1.361-2.828-1.2-3.511-1.465c-2.274-.89-1.88-.652-3.375-1.2-1.153-.423-3.114-1.173-3.37-1.275,0,0,2.249-5.536,3.127-7.5s5.365-8.965,5.834-9.781.183-.841-.786-1c-2.461-.4-2.716-.02-2.716-.02l-6.024,6.1-2-.6a1.487,1.487,0,0,0-.854,2.85l.484.145-1.493,1.512-2.36-.708a1.487,1.487,0,0,0-.855,2.849l.845.253-2.968,3s-1.977-.648-4.576-1.284a28.937,28.937,0,0,0-7.1-.761,2.011,2.011,0,0,0-1.737.85l-.064.212a2.014,2.014,0,0,0,.982,1.663,28.925,28.925,0,0,0,6.346,3.275c2.517.9,4.527,1.445,4.527,1.445l.825,4.142-.844-.254a1.488,1.488,0,0,0-.856,2.85l2.357.708.417,2.083-.483-.145a1.487,1.487,0,1,0-.856,2.849l2,.6,1.674,8.4s0,.464,2.28,1.479c.893.4,1.145.537,1.2-.4s.163-9.253.513-11.377,1.52-7.986,1.52-7.986c.27.057,2.32.507,3.512.791,1.551.368,1.092.351,3.481.859.714.154,2.727.564,3.735.708s2.9.279,2.9.279,1.116,3.711,1.355,4.451.7,2.935,1.465,3.293,1.365.6,1.415.168c.036-.313-.411-6.43-.387-8.493" transform="translate(-823.867 -722.919)" fill="#fff"/>
                </g>
              </g>
            </g>
            <g id="Group_10" data-name="Group 10" transform="translate(424.112 959.624)" opacity="0.3">
              <g id="Group_9" data-name="Group 9">
                <g id="Group_8" data-name="Group 8" clip-path="url(#clip-path-7)">
                  <path id="Path_40" data-name="Path 40" d="M383.288,848.981c-2.031.645-7.617,1.755-7.888,1.872-.4.174.007.673.575,1.3s2.8.43,3.575.443,4.655,0,4.655,0,.679,1.764,1.11,2.686,1.412,2.728,1.766,3.37c1.184,2.137,1.034,1.7,1.836,3.074.619,1.061,1.649,2.89,1.781,3.133,0,0-5.265,2.827-7.2,3.781s-9.852,3.479-10.734,3.807-.677.531-.032,1.272c1.638,1.883,2.079,1.748,2.079,1.748l8.526-.848,1.156,1.736a1.488,1.488,0,0,0,2.476-1.649l-.28-.422,2.114-.211,1.365,2.05a1.488,1.488,0,0,0,2.477-1.648l-.49-.735,4.2-.417s1.109,1.761,2.7,3.91a28.924,28.924,0,0,0,4.979,5.115,2.009,2.009,0,0,0,1.879.453l.185-.123a2.011,2.011,0,0,0,.305-1.906,28.979,28.979,0,0,0-2.8-6.572c-1.366-2.3-2.563-4-2.563-4l2.007-3.716.489.734a1.487,1.487,0,0,0,2.477-1.647l-1.363-2.049,1.009-1.87.28.419a1.487,1.487,0,1,0,2.476-1.647l-1.155-1.737,4.074-7.537s.3-.357-.811-2.595c-.433-.879-.54-1.144-1.184-.457s-6.03,7.02-7.655,8.432-6.266,5.178-6.266,5.178c-.172-.215-1.463-1.871-2.2-2.85-.96-1.273-.617-.966-2.132-2.883-.452-.574-1.74-2.174-2.424-2.927s-2.053-2.065-2.053-2.065,1.51-3.569,1.8-4.293,1.336-2.7.973-3.469-.668-1.333-.983-1.032c-.228.219-3.787,5.213-5.121,6.786" transform="translate(-372.179 -842.112)" fill="#fff"/>
                </g>
              </g>
            </g>
            <g id="Group_13" data-name="Group 13" transform="translate(456.725 715.579)" opacity="0.3">
              <g id="Group_12" data-name="Group 12">
                <g id="Group_11" data-name="Group 11" clip-path="url(#clip-path-8)">
                  <path id="Path_41" data-name="Path 41" d="M424,633.44c-1.176-1.341-3.9-5.254-4.084-5.423-.267-.247-.513.231-.807.879s.609,2.289.86,2.891,1.561,3.571,1.561,3.571-1.126,1.113-1.689,1.754-1.619,2-1.992,2.486c-1.242,1.625-.958,1.363-1.742,2.44-.607.831-1.665,2.235-1.806,2.417,0,0-3.935-3.09-5.316-4.252s-5.975-6.392-6.523-6.958-.634-.342-.986.4c-.895,1.888-.644,2.182-.644,2.182l3.512,6.257-.945,1.469a1.246,1.246,0,0,0,2.1,1.346l.229-.357.872,1.551-1.116,1.736a1.246,1.246,0,1,0,2.1,1.347l.4-.621,1.731,3.084s-.979,1.442-2.092,3.386a24.253,24.253,0,0,0-2.254,5.537,1.685,1.685,0,0,0,.283,1.594l.156.1a1.684,1.684,0,0,0,1.566-.406,24.268,24.268,0,0,0,4.1-4.35c1.3-1.819,2.211-3.309,2.211-3.309l3.523.293-.4.621a1.246,1.246,0,0,0,2.1,1.348l1.115-1.733,1.773.147-.228.356a1.245,1.245,0,1,0,2.095,1.347l.945-1.469,7.149.6s.373.107,1.718-1.493c.529-.627.7-.8-.047-1.062s-7.409-2.271-9.038-3.044-6.076-3.07-6.076-3.07c.108-.2.946-1.75,1.449-2.644.654-1.163.534-.8,1.5-2.6.288-.54,1.085-2.065,1.432-2.843s.9-2.267.9-2.267,3.244-.04,3.895-.062,2.524.117,2.989-.418.8-.959.463-1.1c-.244-.1-5.27-1.156-6.925-1.652" transform="translate(-400.798 -627.951)" fill="#fff"/>
                </g>
              </g>
            </g>
            <g id="Group_16" data-name="Group 16" transform="translate(384.137 643.046)" opacity="0.3">
              <g id="Group_15" data-name="Group 15">
                <g id="Group_14" data-name="Group 14" clip-path="url(#clip-path-9)">
                  <path id="Path_42" data-name="Path 42" d="M350.928,591.292c1.3.595,4.568,2.559,4.756,2.623.275.092.3-.337.3-.906s-1.193-1.472-1.574-1.829-2.309-2.1-2.309-2.1.458-1.181.66-1.832.528-1.99.64-2.467c.375-1.593.254-1.309.474-2.352.171-.806.483-2.176.526-2.355,0,0,3.885.969,5.273,1.365s6.454,2.711,7.039,2.945.575.042.589-.615c.035-1.672-.244-1.8-.244-1.8l-4.612-3.419.209-1.381a1,1,0,1,0-1.97-.3l-.05.335-1.145-.847.246-1.632a1,1,0,1,0-1.97-.3l-.088.585-2.272-1.684s.243-1.373.419-3.158a19.413,19.413,0,0,0-.166-4.779,1.345,1.345,0,0,0-.728-1.071l-.146-.022a1.349,1.349,0,0,0-1.011.808,19.419,19.419,0,0,0-1.573,4.519c-.357,1.754-.53,3.138-.53,3.138L349,573.7l.088-.583a1,1,0,0,0-1.97-.3l-.246,1.63-1.344.473.051-.334a1,1,0,1,0-1.97-.3l-.21,1.381-5.414,1.9s-.308.044-.766,1.652c-.181.631-.248.811.381.76s6.152-.766,7.6-.735,5.44.253,5.44.253c-.013.185-.117,1.587-.193,2.4-.1,1.064-.13.757-.242,2.39-.033.489-.116,1.863-.115,2.545s.088,1.949.088,1.949-2.355,1.091-2.824,1.318-1.88.741-2.046,1.283-.269.963.023.955c.212-.006,4.227-.881,5.6-1.06" transform="translate(-337.099 -564.3)" fill="#fff"/>
                </g>
              </g>
            </g>
            <g id="Group_19" data-name="Group 19" transform="translate(674.928 770.79)" opacity="0.3">
              <g id="Group_18" data-name="Group 18">
                <g id="Group_17" data-name="Group 17" clip-path="url(#clip-path-10)">
                  <path id="Path_43" data-name="Path 43" d="M612.519,711.658c1.788.463,6.4,2.222,6.653,2.26.371.056.3-.5.178-1.222s-1.854-1.6-2.419-1.973-3.416-2.146-3.416-2.146.315-1.607.424-2.483.22-2.653.255-3.286c.115-2.114.026-1.724.069-3.1.035-1.064.121-2.881.136-3.12,0,0,5.168.352,7.025.541s8.834,1.986,9.633,2.151.741-.077.61-.917c-.334-2.137-.72-2.241-.72-2.241l-6.649-3.307-.048-1.806a1.289,1.289,0,0,0-2.578.069l.013.439-1.65-.819-.057-2.134a1.289,1.289,0,1,0-2.577.068l.021.765-3.277-1.63s0-1.8-.182-4.116a25.033,25.033,0,0,0-1.3-6.049c-.44-1.086-1.169-1.2-1.169-1.2l-.193.006s-.721.153-1.1,1.259a25.072,25.072,0,0,0-.977,6.111c-.056,2.314.038,4.117.038,4.117l-3.185,1.8-.021-.765a1.289,1.289,0,0,0-2.578.068l.056,2.131-1.6.908-.011-.436a1.289,1.289,0,1,0-2.576.067l.048,1.807-6.463,3.654s-.382.125-.6,2.278c-.088.844-.131,1.088.657.881s7.661-2.373,9.5-2.661,6.985-.913,6.985-.913c.026.237.211,2.048.3,3.105.117,1.377.007.992.236,3.1.068.63.276,2.4.431,3.266s.555,2.461.555,2.461-2.753,1.924-3.3,2.321-2.227,1.37-2.313,2.1-.124,1.285.245,1.21c.268-.056,5.183-2.082,6.886-2.621" transform="translate(-592.282 -676.401)" fill="#fff"/>
                </g>
              </g>
            </g>
            <g id="Group_22" data-name="Group 22" transform="translate(756.012 1202.167)" opacity="0.3">
              <g id="Group_21" data-name="Group 21">
                <g id="Group_20" data-name="Group 20" clip-path="url(#clip-path-11)">
                  <path id="Path_44" data-name="Path 44" d="M685.639,1089.383c1.843.116,6.7.972,6.96.962.375-.016.205-.546-.057-1.234s-2.123-1.224-2.749-1.479-3.759-1.461-3.759-1.461,0-1.638-.055-2.519-.285-2.647-.37-3.276c-.286-2.1-.3-1.7-.518-3.06-.166-1.052-.425-2.852-.456-3.089,0,0,5.14-.631,7-.8s9.05.28,9.865.291.713-.215.425-1.016c-.732-2.034-1.13-2.064-1.13-2.064l-7.154-1.99-.389-1.765a1.289,1.289,0,0,0-2.518.555l.095.428-1.774-.492-.459-2.085a1.289,1.289,0,1,0-2.517.555l.164.746-3.526-.98s-.343-1.771-.957-4.007a25.073,25.073,0,0,0-2.418-5.7,1.742,1.742,0,0,0-1.375-.956l-.187.042a1.744,1.744,0,0,0-.845,1.445,25.066,25.066,0,0,0,.2,6.185c.383,2.284.816,4.036.816,4.036l-2.787,2.373-.164-.748a1.289,1.289,0,0,0-2.518.555l.458,2.082-1.4,1.194-.095-.426a1.289,1.289,0,1,0-2.517.554l.389,1.765-5.656,4.811s-.351.195-.158,2.35c.074.845.078,1.094.813.741s7.075-3.779,8.83-4.41,6.687-2.218,6.687-2.218c.072.228.595,1.971.883,2.994.375,1.329.194.973.817,3,.186.606.724,2.3,1.04,3.126s1.011,2.312,1.011,2.312-2.339,2.409-2.8,2.9-1.928,1.766-1.876,2.5.122,1.287.471,1.143c.253-.1,4.695-3.024,6.266-3.876" transform="translate(-663.437 -1054.955)" fill="#fff"/>
                </g>
              </g>
            </g>
            <g id="Group_25" data-name="Group 25" transform="translate(676.223 978.656)" opacity="0.3">
              <g id="Group_24" data-name="Group 24">
                <g id="Group_23" data-name="Group 23" clip-path="url(#clip-path-12)">
                  <path id="Path_45" data-name="Path 45" d="M619.622,870.792c0-1.427.434-5.218.414-5.415-.03-.289-.431-.133-.949.1s-.844,1.7-1.012,2.191-.949,2.97-.949,2.97-1.265.074-1.942.161-2.028.344-2.509.441c-1.606.319-1.3.311-2.337.544-.8.179-2.181.463-2.362.5,0,0-.73-3.937-.945-5.364s-.211-7-.24-7.627-.2-.54-.8-.28c-1.535.661-1.54.971-1.54.971l-1.2,5.613-1.344.383a1,1,0,1,0,.547,1.917l.326-.092-.3,1.393-1.587.452a1,1,0,1,0,.547,1.917l.567-.163-.589,2.767s-1.35.349-3.047.928a19.411,19.411,0,0,0-4.28,2.134,1.347,1.347,0,0,0-.673,1.107l.041.142a1.349,1.349,0,0,0,1.156.585,19.382,19.382,0,0,0,4.763-.444c1.745-.4,3.077-.819,3.077-.819l1.961,2.039-.569.162a1,1,0,0,0,.547,1.918l1.585-.452.987,1.026-.325.092a1,1,0,1,0,.546,1.917l1.345-.383,3.978,4.137s.167.262,1.821.011c.65-.1.841-.111.533-.661s-3.249-5.281-3.819-6.606-2.026-5.055-2.026-5.055c.172-.066,1.493-.552,2.268-.823,1.007-.352.742-.2,2.274-.771.458-.172,1.742-.667,2.362-.95s1.737-.889,1.737-.889,1.969,1.692,2.371,2.023,1.454,1.4,2.016,1.329.987-.154.86-.416c-.093-.19-2.555-3.48-3.286-4.653" transform="translate(-593.418 -858.814)" fill="#fff"/>
                </g>
              </g>
            </g>
            <g id="Group_28" data-name="Group 28" transform="translate(394.536 1149.888)" opacity="0.3">
              <g id="Group_27" data-name="Group 27">
                <g id="Group_26" data-name="Group 26" clip-path="url(#clip-path-13)">
                  <path id="Path_46" data-name="Path 46" d="M356.833,1034.32c1.113.893,3.8,3.6,3.971,3.706.245.157.373-.254.514-.8s-.8-1.72-1.079-2.158-1.726-2.6-1.726-2.6.732-1.032,1.086-1.615,1-1.8,1.224-2.236c.753-1.454.566-1.208,1.035-2.165.362-.74,1-1.992,1.086-2.156,0,0,3.53,1.888,4.779,2.612s5.6,4.2,6.107,4.575.547.181.721-.454c.442-1.611.2-1.809.2-1.809l-3.636-4.442.539-1.288a1,1,0,0,0-1.838-.77l-.131.313-.9-1.1.637-1.522a1,1,0,1,0-1.838-.77l-.228.546L365.564,1018s.572-1.273,1.178-2.959a19.406,19.406,0,0,0,1.006-4.676,1.347,1.347,0,0,0-.444-1.217l-.137-.057a1.351,1.351,0,0,0-1.177.538,19.375,19.375,0,0,0-2.628,4c-.774,1.614-1.281,2.915-1.281,2.915l-2.818.259.229-.546a1,1,0,0,0-1.839-.77l-.637,1.52-1.416.131.13-.311a1,1,0,1,0-1.838-.77l-.54,1.289-5.716.523s-.309-.032-1.145,1.415c-.33.568-.439.726.183.831s6.154.759,7.544,1.142,5.215,1.575,5.215,1.575c-.057.175-.5,1.51-.775,2.284-.354,1.009-.31.7-.817,2.259-.153.466-.567,1.778-.734,2.44s-.39,1.91-.39,1.91-2.551.483-3.061.59-2,.258-2.3.744-.5.867-.212.931c.207.047,4.314.179,5.686.34" transform="translate(-346.224 -1009.078)" fill="#fff"/>
                </g>
              </g>
            </g>
            <g id="Group_31" data-name="Group 31" transform="translate(841.64 783.49)" opacity="0.3">
              <g id="Group_30" data-name="Group 30">
                <g id="Group_29" data-name="Group 29" clip-path="url(#clip-path-14)">
                  <path id="Path_47" data-name="Path 47" d="M760.6,706.188c1.137-.862,4.417-2.812,4.562-2.948.213-.2-.155-.423-.654-.694s-1.862.354-2.357.52-2.94,1.042-2.94,1.042-.824-.962-1.3-1.448-1.5-1.406-1.869-1.732c-1.226-1.084-1.034-.843-1.847-1.53-.629-.532-1.689-1.456-1.826-1.579,0,0,2.692-2.964,3.7-4s5.444-4.4,5.927-4.807.309-.485-.264-.809c-1.455-.823-1.7-.639-1.7-.639l-5.194,2.443-1.118-.838a1,1,0,0,0-1.2,1.6l.271.2-1.288.607-1.321-.989a1,1,0,0,0-1.2,1.594l.474.354-2.561,1.2s-1.094-.864-2.582-1.864a19.347,19.347,0,0,0-4.289-2.116,1.344,1.344,0,0,0-1.288.133l-.089.12a1.346,1.346,0,0,0,.234,1.272,19.388,19.388,0,0,0,3.236,3.525c1.377,1.144,2.514,1.953,2.514,1.953l-.436,2.8-.473-.354a1,1,0,0,0-1.2,1.6l1.32.988-.22,1.406-.27-.2a1,1,0,1,0-1.2,1.594l1.119.838-.887,5.672s-.107.292,1.093,1.456c.47.458.6.6.85.024s2.238-5.782,2.948-7.038,2.8-4.672,2.8-4.672c.157.1,1.342.856,2.027,1.308.891.589.605.473,1.991,1.344.415.261,1.586.984,2.187,1.307s1.757.844,1.757.844-.154,2.591-.174,3.112-.238,2.007.162,2.409.72.693.851.432c.1-.189,1.225-4.14,1.716-5.431" transform="translate(-738.58 -687.546)" fill="#fff"/>
                </g>
              </g>
            </g>
            <g id="Group_34" data-name="Group 34" transform="translate(780.65 1069.637)" opacity="0.3">
              <g id="Group_33" data-name="Group 33">
                <g id="Group_32" data-name="Group 32" clip-path="url(#clip-path-15)">
                  <path id="Path_48" data-name="Path 48" d="M715.7,946.511c-1.034-1.96-3.2-7.474-3.37-7.729-.251-.376-.687.131-1.227.828s.074,2.941.2,3.741.856,4.766.856,4.766-1.681,1.02-2.546,1.631-2.532,1.948-3.123,2.428c-1.969,1.606-1.551,1.371-2.809,2.445-.973.828-2.655,2.22-2.878,2.4,0,0-3.863-4.869-5.2-6.671s-5.374-9.444-5.873-10.287-.668-.6-1.307.2c-1.626,2.023-1.407,2.45-1.407,2.45l2.439,8.572-1.565,1.5a1.547,1.547,0,1,0,2.143,2.231l.379-.365.606,2.126-1.848,1.774a1.547,1.547,0,0,0,2.143,2.231l.661-.636,1.2,4.225s-1.6,1.458-3.505,3.487a30.063,30.063,0,0,0-4.319,6.04,2.089,2.089,0,0,0-.12,2.007l.16.165a2.09,2.09,0,0,0,2.009-.039,30.051,30.051,0,0,0,6.212-4.072c2.1-1.821,3.625-3.361,3.625-3.361l4.172,1.371-.662.636a1.547,1.547,0,0,0,2.143,2.232l1.847-1.772,2.1.688-.378.363a1.547,1.547,0,1,0,2.142,2.231l1.565-1.5,8.466,2.783s.42.237,2.507-1.308c.819-.605,1.071-.764.25-1.3s-8.3-4.882-10.04-6.284-6.454-5.462-6.454-5.462c.189-.215,1.647-1.841,2.513-2.776,1.127-1.217.875-.809,2.558-2.713.5-.569,1.906-2.181,2.551-3.021s1.735-2.481,1.735-2.481,3.931.888,4.723,1.05,3.015.871,3.732.358,1.241-.929.876-1.2c-.267-.193-6.035-2.916-7.89-3.993" transform="translate(-685.058 -938.654)" fill="#fff"/>
                </g>
              </g>
            </g>
            <g id="Group_37" data-name="Group 37" transform="translate(416.719 829.966)" opacity="0.3">
              <g id="Group_36" data-name="Group 36">
                <g id="Group_35" data-name="Group 35" clip-path="url(#clip-path-16)">
                  <path id="Path_49" data-name="Path 49" d="M390.216,737.879c-.244-1.406-.473-5.215-.526-5.406-.08-.28-.447-.056-.917.263s-.539,1.818-.619,2.333-.424,3.09-.424,3.09-1.232.289-1.884.492-1.939.689-2.4.867c-1.526.591-1.223.531-2.208.939-.76.315-2.067.832-2.24.9,0,0-1.4-3.752-1.856-5.121s-1.414-6.854-1.552-7.47-.291-.5-.841-.138c-1.4.916-1.349,1.222-1.349,1.222l-.212,5.736-1.257.609a1,1,0,0,0,.869,1.794l.305-.148-.051,1.423-1.486.72a1,1,0,0,0,.869,1.792l.531-.258-.1,2.827s-1.269.577-2.841,1.439a19.369,19.369,0,0,0-3.847,2.841,1.347,1.347,0,0,0-.473,1.206l.065.133a1.35,1.35,0,0,0,1.239.376,19.349,19.349,0,0,0,4.615-1.259c1.649-.7,2.89-1.338,2.89-1.338l2.284,1.671-.532.258a1,1,0,0,0,.869,1.794l1.483-.719,1.15.84-.3.148a1,1,0,1,0,.869,1.793l1.257-.609,4.633,3.388s.21.229,1.795-.3c.623-.206.809-.254.411-.743s-4.111-4.641-4.9-5.848-2.868-4.63-2.868-4.63c.158-.095,1.375-.8,2.092-1.2.932-.521.7-.321,2.107-1.152.422-.25,1.6-.958,2.164-1.344s1.557-1.175,1.557-1.175,2.231,1.325,2.685,1.583,1.674,1.132,2.215.961.946-.321.775-.558c-.125-.171-3.118-2.987-4.04-4.016" transform="translate(-365.691 -728.331)" fill="#fff"/>
                </g>
              </g>
            </g>
            <g id="Group_40" data-name="Group 40" transform="translate(880.311 585.944)" opacity="0.3">
              <g id="Group_39" data-name="Group 39">
                <g id="Group_38" data-name="Group 38" clip-path="url(#clip-path-17)">
                  <path id="Path_50" data-name="Path 50" d="M775.97,532.617c-.008,1.5-.475,5.475-.455,5.683.031.3.451.14,1-.1s.892-1.778,1.07-2.3,1.008-3.114,1.008-3.114,1.326-.072,2.038-.161,2.131-.354,2.636-.454c1.686-.329,1.362-.322,2.455-.562.844-.185,2.291-.477,2.482-.514,0,0,.751,4.134.972,5.634s.195,7.344.223,8.005.209.568.843.3c1.614-.688,1.619-1.013,1.619-1.013l1.279-5.888,1.412-.4a1.047,1.047,0,0,0-.567-2.015l-.342.1.316-1.46,1.667-.469a1.046,1.046,0,1,0-.566-2.014l-.6.169.63-2.9s1.418-.361,3.2-.963a20.246,20.246,0,0,0,4.5-2.224,1.415,1.415,0,0,0,.711-1.159l-.043-.149a1.412,1.412,0,0,0-1.209-.617,20.314,20.314,0,0,0-5,.448c-1.832.417-3.233.849-3.233.849l-2.051-2.148.6-.168a1.046,1.046,0,0,0-.566-2.015l-1.665.469-1.032-1.08.341-.1a1.046,1.046,0,1,0-.566-2.014l-1.412.4-4.16-4.356s-.174-.276-1.911-.019c-.681.1-.883.114-.563.693s3.391,5.555,3.985,6.948,2.108,5.314,2.108,5.314c-.182.067-1.569.573-2.384.854-1.06.367-.779.2-2.39.8-.482.179-1.832.694-2.484.988s-1.826.926-1.826.926-2.061-1.782-2.482-2.131-1.52-1.479-2.112-1.4-1.036.158-.9.434c.1.2,2.669,3.662,3.431,4.9" transform="translate(-772.515 -514.191)" fill="#fff"/>
                </g>
              </g>
            </g>
          </g>
        </g>
      </g>
    </g>
  </g>
  <rect id="Rectangle_19" data-name="Rectangle 19" width="430" height="541" transform="translate(0 391)" fill="url(#linear-gradient)"/>
</svg>
